<svg id="Layer_1" data-name="Layer 1" xmlns="http://www.w3.org/2000/svg" viewBox="0 0 705.7 615.24">
    <defs>
        <style>
            .cls-1 {
                fill: #f2f2f2;
            }

            .cls-2 {
                fill: #fff;
            }

            .cls-3 {
                fill: #3f3d56;
            }

            .cls-4 {
                fill: none;
                stroke: #2f2e41;
                stroke-miterlimit: 10;
                stroke-width: 3px;
            }

            .cls-5 {
                fill: #6c63ff;
            }

            .cls-6 {
                fill: #ffb6b6;
            }

            .cls-7 {
                fill: #2f2e41;
            }
        </style>
    </defs>
    <g id="city_landscape" data-name="city landscape">
        <path class="cls-1"
            d="M572.3,232.6a24.85,24.85,0,0,0-18-7.4V210.4a25.8,25.8,0,0,0-25.8-25.8h0V173.4h6.1a9.9,9.9,0,0,0,0-19.8h-6.1v-7.7h-3v7.7h-7.3a9.9,9.9,0,0,0,0,19.8h7.3v11.2H506.6a13.66,13.66,0,0,0-13.7,13.7h0v26.9h-4.4a51.38,51.38,0,0,0-51.4,51.4h0v36A54.84,54.84,0,0,0,399,352.8H376.5V330H362.8v-9.6h8.4a9.9,9.9,0,1,0,0-19.8h-8.4v-6.3h-3v6.3h-5.1a9.9,9.9,0,0,0,0,19.8h5.1V330a13.71,13.71,0,0,0-12.9,13.7v9.1a51.45,51.45,0,0,0-48.6,51.4V614.7H579.7V250.6A25.5,25.5,0,0,0,572.3,232.6Z"
            transform="translate(-29 0.14)" />
        <path class="cls-1"
            d="M285.2,225.1V210.3a25.8,25.8,0,0,0-25.8-25.8h0V170h6a9.9,9.9,0,1,0,0-19.8h-6v-4.4h-3v4.4h-7.5a9.9,9.9,0,0,0,0,19.8h7.5v14.5H237.5a13.66,13.66,0,0,0-13.7,13.7h0v26.9h-4.4A51.38,51.38,0,0,0,168,276.5v33.3a54.63,54.63,0,0,0-32.5,42.8H107.4V329.8H93.6V317h5a9.9,9.9,0,0,0,0-19.8h-5v-3h-3v3H82A9.9,9.9,0,0,0,82,317h8.5v13a13.71,13.71,0,0,0-12.9,13.7v9.1A51.38,51.38,0,0,0,29,404.2V614.7H310.6V250.6a25.46,25.46,0,0,0-25.4-25.5Z"
            transform="translate(-29 0.14)" />
        <rect class="cls-2" x="69.1" y="428.74" width="19" height="15.2" />
        <rect class="cls-2" x="38" y="428.74" width="19" height="15.2" />
        <rect class="cls-2" x="69.1" y="467.54" width="19" height="15.2" />
        <rect class="cls-2" x="38" y="467.54" width="19" height="15.2" />
        <rect class="cls-2" x="69.1" y="506.24" width="19" height="15.2" />
        <rect class="cls-2" x="38" y="506.24" width="19" height="15.2" />
        <rect class="cls-2" x="38" y="544.94" width="19" height="15.2" />
        <rect class="cls-2" x="38" y="583.74" width="19" height="15.2" />
        <rect class="cls-2" x="179.5" y="396.54" width="61.5" height="4.6" />
        <rect class="cls-2" x="179.5" y="424.64" width="61.5" height="4.6" />
        <rect class="cls-2" x="179.5" y="452.74" width="61.5" height="4.6" />
        <rect class="cls-2" x="215.9" y="193.04" width="19" height="15.2" />
        <rect class="cls-2" x="338.2" y="467.54" width="19" height="15.2" />
        <rect class="cls-2" x="307.1" y="467.54" width="19" height="15.2" />
        <rect class="cls-2" x="338.2" y="506.24" width="19" height="15.2" />
        <rect class="cls-2" x="307.1" y="506.24" width="19" height="15.2" />
        <rect class="cls-2" x="338.2" y="544.94" width="19" height="15.2" />
        <rect class="cls-2" x="307.1" y="544.94" width="19" height="15.2" />
        <rect class="cls-2" x="338.2" y="583.74" width="19" height="15.2" />
        <rect class="cls-2" x="307.1" y="583.74" width="19" height="15.2" />
        <rect class="cls-2" x="485" y="193.04" width="19" height="15.2" />
        <rect class="cls-2" x="503.9" y="257.74" width="46.8" height="9.9" />
        <rect class="cls-2" x="503.9" y="287.44" width="46.8" height="9.9" />
        <rect class="cls-2" x="503.9" y="317.14" width="46.8" height="9.9" />
        <rect class="cls-2" x="503.9" y="346.94" width="46.8" height="9.9" />
        <rect class="cls-2" x="503.9" y="376.64" width="46.8" height="9.9" />
        <rect class="cls-2" x="503.9" y="406.34" width="46.8" height="9.9" />
    </g>
    <g id="right_wheel" data-name="right wheel">
        <path class="cls-3"
            d="M620.7,613.6a114,114,0,1,1,114-114h0A114.21,114.21,0,0,1,620.7,613.6Zm0-217.4A103.4,103.4,0,1,0,724.1,499.6,103.41,103.41,0,0,0,620.7,396.2Z"
            transform="translate(-29 0.14)" />
        <circle class="cls-3" cx="596.7" cy="507.74" r="16" />
        <line class="cls-4" x1="495.84" y1="542.59" x2="684.71" y2="539" />
        <line class="cls-4" x1="498.69" y1="551.99" x2="687.56" y2="548.4" />
    </g>
    <g id="left_wheel" data-name="left wheel">
        <path class="cls-3"
            d="M152.2,615.1a108,108,0,1,1,108-108h0A108,108,0,0,1,152.2,615.1Zm0-206a98,98,0,1,0,98,98A98,98,0,0,0,152.2,409.1Z"
            transform="translate(-29 0.14)" />
        <circle class="cls-3" cx="123.2" cy="507.24" r="16" />
        <line class="cls-4" x1="29.49" y1="546.73" x2="218.35" y2="543.14" />
        <line class="cls-4" x1="32.34" y1="556.13" x2="221.2" y2="552.54" />
    </g>
    <g id="woman_on_bike" data-name="woman on bike">
        <g id="bike">
            <circle class="cls-3" cx="340.2" cy="505.24" r="18.6" />
            <polygon class="cls-3"
                points="127.4 506.14 120.1 499.24 250.3 360.34 482.7 290.84 598.1 493.24 589.4 498.14 478 302.64 255.7 369.14 127.4 506.14" />
            <rect class="cls-3" x="226.2" y="499.84" width="98.3" height="10" />
            <rect class="cls-3" x="166.18" y="380.8" width="123.4" height="10"
                transform="translate(-145.6 99.39) rotate(-19.68)" />
            <rect class="cls-3" x="248" y="312.44" width="10" height="52.3" />
            <rect class="cls-3" x="488" y="193.01" width="10" height="106.2"
                transform="translate(-80.77 163.55) rotate(-17.9)" />
            <rect class="cls-3" x="317.67" y="349.42" width="10" height="162.2"
                transform="translate(-202.34 222.24) rotate(-30.36)" />
            <rect class="cls-3" x="364.23" y="437.6" width="213" height="10"
                transform="translate(-196.54 342.27) rotate(-34.29)" />
            <path class="cls-5" d="M301.2,318.6h-40a10.5,10.5,0,1,1,0-21h40a10.5,10.5,0,0,1,0,21Z"
                transform="translate(-29 0.14)" />
            <path class="cls-5" d="M496.2,205.6h-40a10.5,10.5,0,0,1,0-21h40a10.5,10.5,0,0,1,0,21Z"
                transform="translate(-29 0.14)" />
            <path class="cls-3"
                d="M525.9,328.6l-33.4-70.5.5-.2a19.5,19.5,0,0,1,26,9.3h0l16.7,35.2a19.5,19.5,0,0,1-9.3,26h0Z"
                transform="translate(-29 0.14)" />
            <ellipse class="cls-5" cx="528.31" cy="287.13" rx="11.5" ry="17.5"
                transform="translate(-95.78 201.11) rotate(-20.29)" />
        </g>
        <g id="woman">
            <path class="cls-3"
                d="M311.5,521.1,281.2,495a10.49,10.49,0,1,1,13.7-15.9l30.3,26.1a10.49,10.49,0,0,1-13.7,15.9Z"
                transform="translate(-29 0.14)" />
            <polygon class="cls-6" points="280.2 462.74 291 471.74 331.5 433.64 315.7 420.34 280.2 462.74" />
            <path class="cls-7"
                d="M341,459.5l-22.8-15.7,59.9-95c-43.4-25.2-73.3-56-97.6-89.8-8.3-11.4-13.3-24.7-1.8-33.3a9.91,9.91,0,0,1,1.7-1.1c13.2-8.2,8.9,4.1,27-1.9l16.3,17.4,35.2,34.3L419,312.8c12.1,7.7,15.4,24,7.5,36.3-.4.6-.9,1.3-1.3,1.9Z"
                transform="translate(-29 0.14)" />
            <path class="cls-7"
                d="M310.6,455.3l18.8,13.9-6.4,7.7,7.2,26.1a6.25,6.25,0,0,1-4.4,7.7,6.48,6.48,0,0,1-5.7-1.2l-21.4-17.9,2.7-10.7-7.8,6.4-8.1-6.7Z"
                transform="translate(-29 0.14)" />
            <path class="cls-6"
                d="M483.5,219.1a13.81,13.81,0,0,1-17.6-8.6,10.55,10.55,0,0,1-.6-2.4L357.1,180.3l17.6-18.5,103,30.2a14,14,0,0,1,5.8,27.1Z"
                transform="translate(-29 0.14)" />
            <path class="cls-5"
                d="M319.2,89.8s-17.6,2-17.3,22.3,43.4,66.4,50.2,74.1,73.8,11.6,73.8,11.6l21-18.4-62.2-20.9Z"
                transform="translate(-29 0.14)" />
            <path class="cls-6" d="M283.5,184.9l-4,18.6s-7.2,15.5-5.8,19.6,63.9,26.5,63.9,26.5,5.4-27.9,14.3-46.7Z"
                transform="translate(-29 0.14)" />
            <path class="cls-3"
                d="M483.8,475.9l-36.1,17.2a10.49,10.49,0,1,1-9.1-18.9L474.7,457a10.49,10.49,0,0,1,9.1,18.9Z"
                transform="translate(-29 0.14)" />
            <circle class="cls-6" cx="313.91" cy="45.83" r="29.6" />
            <path class="cls-3"
                d="M423.8,341a19.59,19.59,0,0,1-18.7-14l-.1-.5,74.8-22.1.1.5a19.54,19.54,0,0,1-13.2,24.2h0l-37.4,11A17.13,17.13,0,0,1,423.8,341Z"
                transform="translate(-29 0.14)" />
            <polygon class="cls-6" points="404.4 462.64 418 459.24 411.7 403.94 391.6 408.94 404.4 462.64" />
            <path class="cls-7"
                d="M427,446.6l21.2-9.9,3.7,9.3,26.3,6.1a6.24,6.24,0,0,1,.9,11.9l-25.9,10.2-8.1-7.5,1.9,9.9-9.8,3.9Z"
                transform="translate(-29 0.14)" />
            <path class="cls-7"
                d="M447.8,412.6l-29,17.4-31-109.3c-50.2-.4-96.7-6.1-134.6-23.4-12.8-5.8-18.6-21.2-12.8-34.4l.9-1.8c7.4-13.7,21.7-21.7,34.4-35.9l63,23.3-4.5,17,71.2,3.6c14.3.7,25.3,13.2,24.5,27.8a17.85,17.85,0,0,1-.2,2.3Z"
                transform="translate(-29 0.14)" />
            <path class="cls-5"
                d="M324.6,74.6,344,84.7a5.54,5.54,0,0,1,3.5,5.4l5,20.2,17.7,37.5s4.6,20-4.2,38.8-28.3,65.9-28.3,65.9c-12.7,30.5-117.2,6.9-90-19,3.2-3.1,21.5-29.2,28.1-30.7l16.4-93.6a34,34,0,0,1,16.5-23.8c2.6-1.5,5-2.4,6.7-1.9C319.2,84.5,321,75.9,324.6,74.6Z"
                transform="translate(-29 0.14)" />
            <path class="cls-6"
                d="M492.7,198.6a13.91,13.91,0,0,1-18.9-5.2,21.4,21.4,0,0,1-1-2.2l-111.4-7.5,13.9-21.4L482.2,173a13.93,13.93,0,0,1,17.2,9.6A14.19,14.19,0,0,1,492.7,198.6Z"
                transform="translate(-29 0.14)" />
            <path class="cls-5"
                d="M307.5,101.6s-16.9,5.2-12.9,25.1,54.9,57.3,62.9,63.6,74.7-2.2,74.7-2.2l17.2-22-65-9.2Z"
                transform="translate(-29 0.14)" />
            <path class="cls-7"
                d="M374.4,35.9c-4.5,2.2-9.5-1-13.4-4.2l1.4,1.2c-6.8,6.7-9.9,16.3-11.3,25.8s-1.5,19.1-3.4,28.5-5.9,18.8-13.5,24.6c-10.2,7.8-24.3,7.4-36.9,5.2-.2,0-.3-.1-.5-.1a77,77,0,0,0,3.7-30.5A69.53,69.53,0,0,1,284,114a160.51,160.51,0,0,1-24.4-8.6c-5.1-2.3-10.6-5.4-12.1-10.8s1.8-11,6.1-14.5,9.7-5.3,14.7-7.7,9.9-5.9,11.8-11.1c4.5-12-8.8-25.5-3.8-37.3,2.5-5.8,8.6-9,14.4-11.5A213.45,213.45,0,0,1,317.9,3C326,.8,334.5-1,342.8.3s16.5,6.3,19.6,14.1c5,1.6,10.3,3.5,13.6,7.6C379.3,26.4,379.1,33.6,374.4,35.9Z"
                transform="translate(-29 0.14)" />
        </g>
    </g>
</svg>